<svg version="1.0" xmlns="http://www.w3.org/2000/svg"
 width="512.000000pt" height="512.000000pt" viewBox="0 0 512.000000 512.000000"
 preserveAspectRatio="xMidYMid meet">
<g transform="translate(0.000000,512.000000) scale(0.100000,-0.100000)"
fill="#00b1d4" stroke="none">
<path d="M2370 4026 c-337 -75 -588 -304 -695 -636 -23 -71 -28 -108 -33 -228
-5 -150 3 -218 40 -332 85 -266 305 -490 568 -582 189 -65 431 -65 620 0 256
89 473 306 562 562 65 189 65 431 0 620 -105 301 -365 527 -685 595 -83 18
-299 18 -377 1z m349 -252 c236 -53 440 -258 497 -499 23 -98 15 -276 -15
-365 -85 -249 -309 -431 -566 -458 -317 -34 -609 153 -717 458 -20 56 -23 84
-23 210 0 126 3 154 23 210 119 337 452 522 801 444z"/>
<path d="M2285 1865 c-519 -84 -963 -369 -1252 -802 -41 -61 -76 -126 -79
-145 -12 -70 50 -148 117 -148 64 0 87 18 163 134 133 201 274 344 461 468
671 444 1570 308 2084 -317 32 -38 84 -110 115 -158 66 -100 93 -122 151 -122
76 0 134 67 121 143 -7 45 -134 234 -230 344 -257 295 -631 509 -1022 589
-142 29 -489 36 -629 14z"/>
</g>
</svg>
